<?xml version="1.0" encoding="UTF-8" standalone="no"?>
<svg
   xmlns:dc="http://purl.org/dc/elements/1.1/"
   xmlns:cc="http://creativecommons.org/ns#"
   xmlns:rdf="http://www.w3.org/1999/02/22-rdf-syntax-ns#"
   xmlns:svg="http://www.w3.org/2000/svg"
   xmlns="http://www.w3.org/2000/svg"
   xmlns:sodipodi="http://sodipodi.sourceforge.net/DTD/sodipodi-0.dtd"
   xmlns:inkscape="http://www.inkscape.org/namespaces/inkscape"
   width="300"
   height="300"
   viewBox="0 0 300 300"
   version="1.1"
   id="svg8"
   inkscape:version="1.0 (b51213c273, 2020-08-10)"
   sodipodi:docname="lauburu.svg">
  <defs
     id="defs2" />
  <sodipodi:namedview
     id="base"
     pagecolor="#ffffff"
     bordercolor="#666666"
     borderopacity="1.0"
     inkscape:pageopacity="0.0"
     inkscape:pageshadow="2"
     inkscape:zoom="2"
     inkscape:cx="144.72237"
     inkscape:cy="118.18618"
     inkscape:document-units="px"
     inkscape:current-layer="layer1"
     inkscape:document-rotation="0"
     showgrid="false"
     showborder="false"
     fit-margin-top="0"
     fit-margin-left="0"
     fit-margin-right="0"
     fit-margin-bottom="0"
     units="px"
     inkscape:window-width="1853"
     inkscape:window-height="1025"
     inkscape:window-x="67"
     inkscape:window-y="27"
     inkscape:window-maximized="1" />
  <metadata
     id="metadata5">
    <rdf:RDF>
      <cc:Work
         rdf:about="">
        <dc:format>image/svg+xml</dc:format>
        <dc:type
           rdf:resource="http://purl.org/dc/dcmitype/StillImage" />
        <dc:title></dc:title>
      </cc:Work>
    </rdf:RDF>
  </metadata>
  <g
     inkscape:label="Layer 1"
     inkscape:groupmode="layer"
     id="layer1"
     transform="translate(0.88373183,99.04095)">
    <path
       id="path837"
       style="fill:#5f5fd3;stroke:#4d4d4d;stroke-width:0"
       d="m 149.11627,-99.040949 a 75.000053,75.000054 0 0 0 -75.000004,75.000001 75.000053,75.000054 0 0 0 75.000004,74.999998 37.500028,37.500028 0 0 1 -37.50033,-37.499679 37.500028,37.500028 0 0 1 37.50033,-37.500319 37.500028,37.500028 0 0 0 37.50031,-37.499678 37.500028,37.500028 0 0 0 -37.50031,-37.500323 z m 0,149.999999 A 37.500055,37.500028 0 0 1 186.61593,13.458726 37.500055,37.500028 0 0 1 224.11626,50.95905 37.500055,37.500028 0 0 0 261.61595,88.459373 37.500055,37.500028 0 0 0 299.11627,50.95905 75.000109,75.000054 0 0 0 224.11626,-24.040948 75.000109,75.000054 0 0 0 149.11627,50.95905 Z m 0,0 A 37.500028,37.500028 0 0 1 111.61659,88.459373 37.500028,37.500028 0 0 1 74.116266,50.95905 37.500028,37.500028 0 0 0 36.616592,13.458726 37.500028,37.500028 0 0 0 -0.88373121,50.95905 a 75.000053,75.000054 0 0 0 74.99999721,75 75.000053,75.000054 0 0 0 75.000004,-75 z m 6.4e-4,0 a 37.499949,37.500056 0 0 1 37.49967,37.499678 37.499949,37.500056 0 0 1 -37.49967,37.500322 37.499949,37.500056 0 0 0 -37.50032,37.49967 37.499949,37.500056 0 0 0 37.50032,37.50033 74.999892,75.00011 0 0 0 74.99935,-75 74.999892,75.00011 0 0 0 -74.99935,-75 z" />
  </g>
</svg>
